<?xml version="1.0" encoding="UTF-8"?>
<svg xmlns="http://www.w3.org/2000/svg" width="37" height="36" viewBox="0 0 37 36" fill="none">
  <path d="M11.75 19.125H25.25" stroke="#F67C98" stroke-width="1.5" stroke-linecap="round" stroke-linejoin="round"></path>
  <path d="M7.25 13.5V10.125C7.25 8.93153 7.72411 7.78693 8.56802 6.94302C9.41193 6.09911 10.5565 5.625 11.75 5.625H25.25C26.4435 5.625 27.5881 6.09911 28.432 6.94302C29.2759 7.78693 29.75 8.93153 29.75 10.125V13.5" stroke="#F67C98" stroke-width="1.5" stroke-linecap="round" stroke-linejoin="round"></path>
  <path d="M11.75 23.625V18C11.75 17.11 11.4861 16.24 10.9916 15.4999C10.4971 14.7599 9.79434 14.1831 8.97208 13.8425C8.14981 13.5019 7.24501 13.4128 6.3721 13.5865C5.49918 13.7601 4.69736 14.1887 4.06802 14.818C3.43869 15.4474 3.0101 16.2492 2.83647 17.1221C2.66283 17.995 2.75195 18.8998 3.09254 19.7221C3.43314 20.5443 4.00991 21.2471 4.74994 21.7416C5.48996 22.2361 6.35999 22.5 7.25 22.5V28.125C7.25 28.4234 7.36853 28.7095 7.57951 28.9205C7.79049 29.1315 8.07663 29.25 8.375 29.25H28.625C28.9234 29.25 29.2095 29.1315 29.4205 28.9205C29.6315 28.7095 29.75 28.4234 29.75 28.125V22.5C30.64 22.5 31.51 22.2361 32.2501 21.7416C32.9901 21.2471 33.5669 20.5443 33.9075 19.7221C34.2481 18.8998 34.3372 17.995 34.1635 17.1221C33.9899 16.2492 33.5613 15.4474 32.932 14.818C32.3026 14.1887 31.5008 13.7601 30.6279 13.5865C29.755 13.4128 28.8502 13.5019 28.0279 13.8425C27.2057 14.1831 26.5029 14.7599 26.0084 15.4999C25.5139 16.24 25.25 17.11 25.25 18V23.625" stroke="#F67C98" stroke-width="1.5" stroke-linecap="round" stroke-linejoin="round"></path>
</svg>
