<?xml version="1.0" encoding="UTF-8"?>
<svg xmlns="http://www.w3.org/2000/svg" width="37" height="36" viewBox="0 0 37 36" fill="none">
  <path d="M11.75 5.625H7.25C6.62868 5.625 6.125 6.12868 6.125 6.75V29.25C6.125 29.8713 6.62868 30.375 7.25 30.375H11.75C12.3713 30.375 12.875 29.8713 12.875 29.25V6.75C12.875 6.12868 12.3713 5.625 11.75 5.625Z" stroke="#F67C98" stroke-width="1.5" stroke-linecap="round" stroke-linejoin="round"></path>
  <path d="M6.125 11.25H12.875" stroke="#F67C98" stroke-width="1.5" stroke-linecap="round" stroke-linejoin="round"></path>
  <path d="M18.5 5.625H14C13.3787 5.625 12.875 6.12868 12.875 6.75V29.25C12.875 29.8713 13.3787 30.375 14 30.375H18.5C19.1213 30.375 19.625 29.8713 19.625 29.25V6.75C19.625 6.12868 19.1213 5.625 18.5 5.625Z" stroke="#F67C98" stroke-width="1.5" stroke-linecap="round" stroke-linejoin="round"></path>
  <path d="M12.875 24.75H19.625" stroke="#F67C98" stroke-width="1.5" stroke-linecap="round" stroke-linejoin="round"></path>
  <path d="M25.0583 5.26485L20.7117 6.42953C20.1115 6.59034 19.7554 7.20722 19.9162 7.80737L25.7396 29.5407C25.9004 30.1409 26.5173 30.497 27.1174 30.3362L31.4641 29.1715C32.0643 29.0107 32.4204 28.3938 32.2596 27.7937L26.4362 6.06034C26.2754 5.46019 25.6585 5.10404 25.0583 5.26485Z" stroke="#F67C98" stroke-width="1.5" stroke-linecap="round" stroke-linejoin="round"></path>
  <path d="M24.5742 25.1992L31.0992 23.4414" stroke="#F67C98" stroke-width="1.5" stroke-linecap="round" stroke-linejoin="round"></path>
  <path d="M21.0859 12.15L27.6109 10.4062" stroke="#F67C98" stroke-width="1.5" stroke-linecap="round" stroke-linejoin="round"></path>
</svg>
