<?xml version="1.0" encoding="UTF-8"?>
<svg xmlns="http://www.w3.org/2000/svg" width="37" height="36" viewBox="0 0 37 36" fill="none">
  <path d="M22.8125 10.6875C22.8125 10.8946 22.6446 11.0625 22.4375 11.0625C22.2304 11.0625 22.0625 10.8946 22.0625 10.6875C22.0625 10.4804 22.2304 10.3125 22.4375 10.3125C22.6446 10.3125 22.8125 10.4804 22.8125 10.6875Z" fill="#2E2E2E" stroke="#F67C98" stroke-width="1.5"></path>
  <path d="M2.75 25.8746C35.3469 33.0043 31.9719 10.6168 31.0437 6.32774C30.9958 6.1148 30.8885 5.91983 30.7341 5.76549C30.5798 5.61115 30.3848 5.50378 30.1719 5.45587C25.8828 4.52774 3.49531 1.15274 10.625 33.7496" stroke="#F67C98" stroke-width="1.5" stroke-linecap="round" stroke-linejoin="round"></path>
  <path d="M28.8093 21.3746C27.0044 21.3992 25.2129 21.0617 23.5408 20.3819C21.8687 19.7021 20.3498 18.6939 19.0742 17.4169C17.7985 16.1399 16.7918 14.62 16.1137 12.9472C15.4357 11.2744 15.1 9.48257 15.1265 7.67773" stroke="#F67C98" stroke-width="1.5" stroke-linecap="round" stroke-linejoin="round"></path>
</svg>
