<?xml version="1.0" encoding="UTF-8"?>
<svg xmlns="http://www.w3.org/2000/svg" width="37" height="36" viewBox="0 0 37 36" fill="none">
  <path d="M18.4844 10.125C20.659 10.125 22.4219 8.36212 22.4219 6.1875C22.4219 4.01288 20.659 2.25 18.4844 2.25C16.3098 2.25 14.5469 4.01288 14.5469 6.1875C14.5469 8.36212 16.3098 10.125 18.4844 10.125Z" stroke="#F67C98" stroke-width="1.5" stroke-linecap="round" stroke-linejoin="round"></path>
  <path d="M22.1439 18.9422L27.0376 22.7391C27.3612 23.0084 27.7737 23.147 28.1942 23.1278C28.6147 23.1086 29.0128 22.933 29.3105 22.6353C29.6081 22.3377 29.7838 21.9395 29.803 21.519C29.8222 21.0985 29.6835 20.686 29.4142 20.3625L23.8455 13.2047C23.586 12.9425 23.2772 12.7343 22.9369 12.5919C22.5966 12.4495 22.2315 12.3758 21.8626 12.375H15.1127C14.364 12.379 13.6468 12.677 13.1158 13.2047L7.54703 20.3625C7.25707 20.6844 7.102 21.1054 7.11392 21.5384C7.12584 21.9715 7.30384 22.3833 7.61106 22.6887C7.91829 22.9942 8.3312 23.1697 8.7643 23.1791C9.1974 23.1885 9.61751 23.0309 9.93765 22.7391L14.8314 18.9422L10.922 31.2609C10.8278 31.4622 10.7742 31.6801 10.7642 31.9021C10.7543 32.1241 10.7881 32.3459 10.8638 32.5549C10.9396 32.7638 11.0557 32.9558 11.2057 33.1198C11.3556 33.2838 11.5364 33.4168 11.7377 33.5109C11.9389 33.6051 12.1568 33.6587 12.3788 33.6687C12.6008 33.6787 12.8226 33.6449 13.0316 33.5691C13.2405 33.4934 13.4325 33.3772 13.5965 33.2273C13.7606 33.0774 13.8935 32.8966 13.9877 32.6953L18.4876 25.6078L22.9876 32.6953C23.0756 32.9054 23.2051 33.0955 23.3684 33.2542C23.5317 33.4129 23.7255 33.5369 23.938 33.6187C24.1505 33.7006 24.3774 33.7385 24.605 33.7304C24.8326 33.7222 25.0561 33.668 25.2622 33.5712C25.4683 33.4743 25.6527 33.3367 25.8042 33.1667C25.9557 32.9967 26.0712 32.7977 26.1438 32.5819C26.2164 32.366 26.2446 32.1377 26.2266 31.9107C26.2086 31.6837 26.1449 31.4627 26.0392 31.2609L22.1439 18.9422Z" stroke="#F67C98" stroke-width="1.5" stroke-linecap="round" stroke-linejoin="round"></path>
</svg>
