<?xml version="1.0" encoding="UTF-8"?>
<svg xmlns="http://www.w3.org/2000/svg" width="37" height="36" viewBox="0 0 37 36" fill="none">
  <path d="M7.25 19.6309V29.2496C7.25 29.548 7.36853 29.8341 7.57951 30.0451C7.79048 30.2561 8.07663 30.3746 8.375 30.3746H28.625C28.9234 30.3746 29.2095 30.2561 29.4205 30.0451C29.6315 29.8341 29.75 29.548 29.75 29.2496V19.6309" stroke="#F67C98" stroke-width="1.5" stroke-linecap="round" stroke-linejoin="round"></path>
  <path d="M8.09375 5.625H28.9062C29.1503 5.62701 29.3873 5.70735 29.5822 5.85419C29.7771 6.00103 29.9198 6.20661 29.9891 6.44062L32 13.5H5L7.01094 6.44062C7.08023 6.20661 7.22286 6.00103 7.4178 5.85419C7.61274 5.70735 7.8497 5.62701 8.09375 5.625V5.625Z" stroke="#F67C98" stroke-width="1.5" stroke-linecap="round" stroke-linejoin="round"></path>
  <path d="M14 13.5V15.75C14 16.9435 13.5259 18.0881 12.682 18.932C11.8381 19.7759 10.6935 20.25 9.5 20.25C8.30653 20.25 7.16193 19.7759 6.31802 18.932C5.47411 18.0881 5 16.9435 5 15.75V13.5" stroke="#F67C98" stroke-width="1.5" stroke-linecap="round" stroke-linejoin="round"></path>
  <path d="M23 13.5V15.75C23 16.9435 22.5259 18.0881 21.682 18.932C20.8381 19.7759 19.6935 20.25 18.5 20.25C17.3065 20.25 16.1619 19.7759 15.318 18.932C14.4741 18.0881 14 16.9435 14 15.75V13.5" stroke="#F67C98" stroke-width="1.5" stroke-linecap="round" stroke-linejoin="round"></path>
  <path d="M32 13.5V15.75C32 16.9435 31.5259 18.0881 30.682 18.932C29.8381 19.7759 28.6935 20.25 27.5 20.25C26.3065 20.25 25.1619 19.7759 24.318 18.932C23.4741 18.0881 23 16.9435 23 15.75V13.5" stroke="#F67C98" stroke-width="1.5" stroke-linecap="round" stroke-linejoin="round"></path>
</svg>
