<?xml version="1.0" encoding="UTF-8"?>
<svg xmlns="http://www.w3.org/2000/svg" width="37" height="36" viewBox="0 0 37 36" fill="none">
  <path d="M27.5 16.875H31.3109C31.5186 16.8755 31.7221 16.8177 31.8986 16.7084C32.0751 16.599 32.2174 16.4424 32.3094 16.2562L34.8969 11.0813C35.0251 10.8221 35.0499 10.5238 34.9663 10.247C34.8828 9.97024 34.6971 9.73557 34.4469 9.59062L27.5 5.625" stroke="#F67C98" stroke-width="1.5" stroke-linecap="round" stroke-linejoin="round"></path>
  <path d="M9.49932 16.875H5.68838C5.48077 16.8755 5.27718 16.8177 5.1007 16.7084C4.92423 16.599 4.78193 16.4424 4.68995 16.2562L2.10245 11.0813C1.97425 10.8221 1.94942 10.5238 2.03298 10.247C2.11655 9.97024 2.30225 9.73557 2.55245 9.59062L9.49932 5.625" stroke="#F67C98" stroke-width="1.5" stroke-linecap="round" stroke-linejoin="round"></path>
  <path d="M23 5.625C23 6.81847 22.5259 7.96307 21.682 8.80698C20.8381 9.65089 19.6935 10.125 18.5 10.125C17.3065 10.125 16.1619 9.65089 15.318 8.80698C14.4741 7.96307 14 6.81847 14 5.625H9.5V29.25C9.5 29.5484 9.61853 29.8345 9.82951 30.0455C10.0405 30.2565 10.3266 30.375 10.625 30.375H26.375C26.6734 30.375 26.9595 30.2565 27.1705 30.0455C27.3815 29.8345 27.5 29.5484 27.5 29.25V5.625H23Z" stroke="#F67C98" stroke-width="1.5" stroke-linecap="round" stroke-linejoin="round"></path>
</svg>
